<svg width="46" height="33" viewBox="0 0 46 33" fill="none" xmlns="http://www.w3.org/2000/svg">
<g clip-path="url(#clip0)">
<path d="M2.2097 29.034C1.93356 29.0341 1.70971 29.2579 1.70971 29.5341C1.70972 29.8102 1.93358 30.0341 2.20973 30.034L2.2097 29.034ZM42.664 0.985961C42.5801 0.72287 42.2988 0.577601 42.0357 0.661493L37.7484 2.02859C37.4853 2.11249 37.34 2.39377 37.4239 2.65686C37.5078 2.91995 37.7891 3.06522 38.0522 2.98133L41.8631 1.76613L43.0783 5.57707C43.1622 5.84016 43.4435 5.98543 43.7066 5.90154C43.9697 5.81765 44.115 5.53636 44.0311 5.27327L42.664 0.985961ZM2.20973 30.034C8.84821 30.0339 16.9309 28.4483 22.0909 21.8139L21.3015 21.2C16.425 27.4699 8.73457 29.0339 2.2097 29.034L2.20973 30.034ZM27.8822 17.1526C33.5177 14.7311 39.1143 8.17843 42.6319 1.36729L41.7434 0.908427C38.2727 7.62865 32.8156 13.9444 27.4874 16.2338L27.8822 17.1526ZM22.0909 21.8139C24.6814 18.4832 24.8834 15.3472 23.9444 13.3942C23.4789 12.426 22.7139 11.7267 21.8081 11.5303C20.8781 11.3287 19.921 11.6831 19.1631 12.5816L19.9274 13.2263C20.4911 12.5581 21.0909 12.398 21.5962 12.5076C22.1255 12.6223 22.674 13.0597 23.0432 13.8275C23.7734 15.3463 23.7293 18.0786 21.3015 21.2L22.0909 21.8139ZM19.1631 12.5816C18.4187 13.4639 18.1814 14.4122 18.4532 15.2961C18.7171 16.1549 19.428 16.8404 20.3424 17.303C22.1744 18.23 25.027 18.3794 27.8822 17.1526L27.4874 16.2338C24.8606 17.3625 22.3219 17.1839 20.7939 16.4108C20.0282 16.0234 19.5668 15.5157 19.409 15.0023C19.2589 14.5139 19.3502 13.9107 19.9274 13.2263L19.1631 12.5816Z" fill="#3C3C3C"/>
</g>
<defs>
<clipPath id="clip0">
<rect width="46" height="33" fill="white"/>
</clipPath>
</defs>
</svg>
